# Blender v2.80 (sub 75) OBJ File: ''
# www.blender.org
mtllib DemoHoleMesh.mtl
o Cylinder
v 0.129279 0.506619 8.284922
v 0.019766 0.517405 8.284922
v 0.234584 0.474675 8.284922
v 0.331633 0.422801 8.284922
v 0.416698 0.352990 8.284922
v 0.486509 0.267926 8.284922
v 0.538383 0.170876 8.284922
v 0.570326 0.065572 8.284922
v 0.581113 -0.043942 8.284922
v 0.570326 -0.153455 8.284922
v 0.538383 -0.258760 8.284922
v 0.486509 -0.355809 8.284922
v 0.416698 -0.440874 8.284922
v 0.331633 -0.510684 8.284922
v 0.234584 -0.562558 8.284922
v 0.129279 -0.594502 8.284922
v 0.019766 -0.605288 8.284922
v -0.089748 -0.594502 8.284922
v -0.195052 -0.562558 8.284922
v -0.292102 -0.510684 8.284922
v -0.377166 -0.440874 8.284922
v -0.446977 -0.355809 8.284922
v -0.498851 -0.258759 8.284922
v -0.530795 -0.153455 8.284922
v -0.541581 -0.043941 8.284922
v -0.530795 0.065572 8.284922
v -0.498851 0.170877 8.284922
v -0.446976 0.267926 8.284922
v -0.377166 0.352991 8.284922
v -0.292101 0.422801 8.284922
v -0.195051 0.474675 8.284922
v -0.089747 0.506619 8.284922
v 0.129280 0.506619 -0.990833
v 0.019766 0.517405 -0.990833
v 0.234584 0.474675 -0.990833
v 0.331634 0.422801 -0.990833
v 0.416698 0.352991 -0.990833
v 0.486509 0.267926 -0.990833
v 0.538383 0.170877 -0.990833
v 0.570327 0.065572 -0.990833
v 0.581113 -0.043941 -0.990833
v 0.570327 -0.153455 -0.990833
v 0.538383 -0.258759 -0.990833
v 0.486509 -0.355809 -0.990833
v 0.416698 -0.440873 -0.990833
v 0.331634 -0.510684 -0.990833
v 0.234584 -0.562558 -0.990833
v 0.129279 -0.594502 -0.990833
v 0.019766 -0.605288 -0.990833
v -0.089747 -0.594502 -0.990833
v -0.195052 -0.562558 -0.990833
v -0.292102 -0.510684 -0.990833
v -0.377166 -0.440873 -0.990833
v -0.446977 -0.355808 -0.990833
v -0.498851 -0.258759 -0.990833
v -0.530794 -0.153454 -0.990833
v -0.541580 -0.043941 -0.990833
v -0.530794 0.065573 -0.990833
v -0.498850 0.170877 -0.990833
v -0.446976 0.267927 -0.990833
v -0.377165 0.352991 -0.990833
v -0.292101 0.422802 -0.990833
v -0.195051 0.474676 -0.990833
v -0.089746 0.506619 -0.990833
vt 0.562500 1.000000
vt 0.593750 1.000000
vt 0.593750 1.000000
vt 0.562500 1.000000
vt 0.968750 1.000000
vt 1.000000 1.000000
vt 1.000000 1.000000
vt 0.968750 1.000000
vt 0.125000 1.000000
vt 0.156250 1.000000
vt 0.156250 1.000000
vt 0.125000 1.000000
vt 0.531250 1.000000
vt 0.531250 1.000000
vt 0.937500 1.000000
vt 0.937500 1.000000
vt 0.093750 1.000000
vt 0.093750 1.000000
vt 0.500000 1.000000
vt 0.500000 1.000000
vt 0.906250 1.000000
vt 0.906250 1.000000
vt 0.062500 1.000000
vt 0.062500 1.000000
vt 0.468750 1.000000
vt 0.468750 1.000000
vt 0.875000 1.000000
vt 0.875000 1.000000
vt 0.031250 1.000000
vt 0.031250 1.000000
vt 0.437500 1.000000
vt 0.437500 1.000000
vt 0.843750 1.000000
vt 0.843750 1.000000
vt 0.000000 1.000000
vt 0.000000 1.000000
vt 0.406250 1.000000
vt 0.406250 1.000000
vt 0.812500 1.000000
vt 0.812500 1.000000
vt 0.375000 1.000000
vt 0.375000 1.000000
vt 0.781250 1.000000
vt 0.781250 1.000000
vt 0.343750 1.000000
vt 0.343750 1.000000
vt 0.750000 1.000000
vt 0.750000 1.000000
vt 0.312500 1.000000
vt 0.312500 1.000000
vt 0.718750 1.000000
vt 0.718750 1.000000
vt 0.281250 1.000000
vt 0.281250 1.000000
vt 0.687500 1.000000
vt 0.687500 1.000000
vt 0.250000 1.000000
vt 0.250000 1.000000
vt 0.656250 1.000000
vt 0.656250 1.000000
vt 0.218750 1.000000
vt 0.218750 1.000000
vt 0.625000 1.000000
vt 0.625000 1.000000
vt 0.187500 1.000000
vt 0.187500 1.000000
vn -0.4714 0.8819 0.0000
vn -0.0980 -0.9952 -0.0000
vn 0.7730 -0.6344 0.0000
vn -0.2903 0.9569 0.0000
vn -0.2903 -0.9569 -0.0000
vn 0.6344 -0.7730 -0.0000
vn -0.0980 0.9952 0.0000
vn -0.4714 -0.8819 -0.0000
vn 0.4714 -0.8819 -0.0000
vn 0.0980 0.9952 0.0000
vn -0.6344 -0.7730 -0.0000
vn 0.2903 -0.9569 -0.0000
vn 0.2903 0.9569 0.0000
vn -0.7730 -0.6344 -0.0000
vn 0.0980 -0.9952 -0.0000
vn 0.4714 0.8819 0.0000
vn -0.8819 -0.4714 -0.0000
vn 0.6344 0.7730 0.0000
vn -0.9569 -0.2903 -0.0000
vn 0.7730 0.6344 0.0000
vn -0.9952 -0.0980 -0.0000
vn 0.8819 0.4714 0.0000
vn -0.9952 0.0980 -0.0000
vn 0.9569 0.2903 0.0000
vn -0.9569 0.2903 -0.0000
vn 0.9952 0.0980 0.0000
vn -0.8819 0.4714 -0.0000
vn 0.9952 -0.0980 0.0000
vn -0.7730 0.6344 -0.0000
vn 0.9569 -0.2903 0.0000
vn -0.6344 0.7730 0.0000
vn 0.8819 -0.4714 0.0000
usemtl None
s off
f 15/1/1 14/2/1 46/3/1 47/4/1
f 1/5/2 2/6/2 34/7/2 33/8/2
f 29/9/3 28/10/3 60/11/3 61/12/3
f 16/13/4 15/1/4 47/4/4 48/14/4
f 3/15/5 1/5/5 33/8/5 35/16/5
f 30/17/6 29/9/6 61/12/6 62/18/6
f 17/19/7 16/13/7 48/14/7 49/20/7
f 4/21/8 3/15/8 35/16/8 36/22/8
f 31/23/9 30/17/9 62/18/9 63/24/9
f 18/25/10 17/19/10 49/20/10 50/26/10
f 5/27/11 4/21/11 36/22/11 37/28/11
f 32/29/12 31/23/12 63/24/12 64/30/12
f 19/31/13 18/25/13 50/26/13 51/32/13
f 6/33/14 5/27/14 37/28/14 38/34/14
f 2/35/15 32/29/15 64/30/15 34/36/15
f 20/37/16 19/31/16 51/32/16 52/38/16
f 7/39/17 6/33/17 38/34/17 39/40/17
f 21/41/18 20/37/18 52/38/18 53/42/18
f 8/43/19 7/39/19 39/40/19 40/44/19
f 22/45/20 21/41/20 53/42/20 54/46/20
f 9/47/21 8/43/21 40/44/21 41/48/21
f 23/49/22 22/45/22 54/46/22 55/50/22
f 10/51/23 9/47/23 41/48/23 42/52/23
f 24/53/24 23/49/24 55/50/24 56/54/24
f 11/55/25 10/51/25 42/52/25 43/56/25
f 25/57/26 24/53/26 56/54/26 57/58/26
f 12/59/27 11/55/27 43/56/27 44/60/27
f 26/61/28 25/57/28 57/58/28 58/62/28
f 13/63/29 12/59/29 44/60/29 45/64/29
f 27/65/30 26/61/30 58/62/30 59/66/30
f 14/2/31 13/63/31 45/64/31 46/3/31
f 28/10/32 27/65/32 59/66/32 60/11/32
